HIERARCHY
ROOT Hips
{
	OFFSET -0.001795 -0.223333 0.028219
	CHANNELS 6 Xposition Yposition Zposition Zrotation Yrotation Xrotation 
	JOINT LeftUpLeg
	{
		OFFSET 0.069520 -0.091406 -0.006815
		CHANNELS 3 Zrotation Yrotation Xrotation
		JOINT LeftLeg
		{
			OFFSET 0.034277 -0.375199 -0.004496
			CHANNELS 3 Zrotation Yrotation Xrotation
			JOINT LeftFoot
			{
				OFFSET -0.013596 -0.397961 -0.043693
				CHANNELS 3 Zrotation Yrotation Xrotation
				JOINT LeftToe
				{
					OFFSET 0.026358 -0.055791 0.119288
					CHANNELS 3 Zrotation Yrotation Xrotation
					End Site
					{
						OFFSET 0.000000 0.000000 0.000000
					}
				}
			}
		}
	}
	JOINT RightUpLeg
	{
		OFFSET -0.067670 -0.090522 -0.004320
		CHANNELS 3 Zrotation Yrotation Xrotation
		JOINT RightLeg
		{
			OFFSET -0.038290 -0.382569 -0.008850
			CHANNELS 3 Zrotation Yrotation Xrotation
			JOINT RightFoot
			{
				OFFSET 0.015774 -0.398415 -0.042312
				CHANNELS 3 Zrotation Yrotation Xrotation
				JOINT RightToe
				{
					OFFSET -0.025372 -0.048144 0.123348
					CHANNELS 3 Zrotation Yrotation Xrotation
					End Site
					{
						OFFSET 0.000000 0.000000 0.000000
					}
				}
			}
		}
	}
	JOINT Spine
	{
		OFFSET -0.002533 0.108963 -0.026696
		CHANNELS 3 Zrotation Yrotation Xrotation
		JOINT Spine1
		{
			OFFSET 0.005487 0.135180 0.001092
			CHANNELS 3 Zrotation Yrotation Xrotation
			JOINT Spine2
			{
				OFFSET 0.001457 0.052922 0.025425
				CHANNELS 3 Zrotation Yrotation Xrotation
				JOINT Neck
				{
					OFFSET -0.002778 0.213870 -0.042857
					CHANNELS 3 Zrotation Yrotation Xrotation
					JOINT Head
					{
						OFFSET 0.005152 0.064970 0.051349
						CHANNELS 3 Zrotation Yrotation Xrotation
						End Site
						{
							OFFSET 0.000000 0.000000 0.000000
						}
					}
				}
				JOINT LeftShoulder
				{
					OFFSET 0.078845 0.121749 -0.034090
					CHANNELS 3 Zrotation Yrotation Xrotation
					JOINT LeftArm
					{
						OFFSET 0.090977 0.030469 -0.008868
						CHANNELS 3 Zrotation Yrotation Xrotation
						JOINT LeftForeArm
						{
							OFFSET 0.259612 -0.012772 -0.027456
							CHANNELS 3 Zrotation Yrotation Xrotation
							JOINT LeftHand
							{
								OFFSET 0.249234 0.008986 -0.001171
								CHANNELS 3 Zrotation Yrotation Xrotation
								End Site
								{
									OFFSET 0.000000 0.000000 0.000000
								}
							}
						}
					}
				}
				JOINT RightShoulder
				{
					OFFSET -0.081759 0.118833 -0.038615
					CHANNELS 3 Zrotation Yrotation Xrotation
					JOINT RightArm
					{
						OFFSET -0.096012 0.032551 -0.009143
						CHANNELS 3 Zrotation Yrotation Xrotation
						JOINT RightForeArm
						{
							OFFSET -0.253742 -0.013329 -0.021401
							CHANNELS 3 Zrotation Yrotation Xrotation
							JOINT RightHand
							{
								OFFSET -0.255298 0.007772 -0.005559
								CHANNELS 3 Zrotation Yrotation Xrotation
								End Site
								{
									OFFSET 0.000000 0.000000 0.000000
								}
							}
						}
					}
				}
			}
		}
	}
}
MOTION
Frames: 10
Frame Time: 0.050000
0.000000 0.897093 0.000000 -1.431692 -1.695077 5.128328 4.067881 0.181260 4.647281 -3.586950 0.435398 16.469293 6.210906 11.705479 -7.785055 0.000000 0.000000 0.000000 -5.956528 2.033472 -33.742050 8.506248 -1.511099 19.748713 -6.135825 -16.005886 4.510768 0.000000 0.000000 0.000000 7.616070 -2.076310 17.755248 -3.684080 1.417789 -26.889848 -4.856659 -0.902579 28.193646 13.745250 -5.148183 -33.761101 0.000000 0.000000 0.000000 -21.225880 -5.002575 2.366448 -42.693842 -7.062509 -5.006709 -19.088340 -33.410759 7.624058 0.000000 0.000000 0.000000 33.151737 -3.955309 -6.276340 46.394245 3.618822 -5.022860 7.703094 23.947021 2.477425 0.000000 0.000000 0.000000 
-0.015783 0.899781 0.037813 -1.494382 -1.925864 6.627300 5.726759 0.010656 3.443971 -4.602350 0.773539 19.661819 5.792189 11.264914 -5.155071 0.000000 0.000000 0.000000 -4.442044 2.535260 -34.632166 8.222245 -1.487770 22.339674 -6.386863 -16.844989 6.820829 0.000000 0.000000 0.000000 7.866604 -2.079956 17.034001 -2.942480 1.251648 -26.519674 -4.880465 -1.642289 26.148718 12.791442 -4.842911 -32.867082 0.000000 0.000000 0.000000 -22.080847 -4.265657 2.123566 -43.417203 -5.827968 -5.364923 -18.819755 -34.555642 7.893206 0.000000 0.000000 0.000000 31.600599 -3.970966 -6.476987 47.481603 2.354331 -5.283920 8.175648 24.917994 2.611580 0.000000 0.000000 0.000000 
-0.031585 0.904025 0.074976 -1.939606 -2.539209 6.973740 7.997922 -0.146783 1.543069 -5.631166 1.309433 25.264417 6.039563 12.510830 -1.293254 0.000000 0.000000 0.000000 -3.020989 2.951049 -34.254325 8.738699 -1.686052 25.471718 -6.539252 -17.174638 6.360044 0.000000 0.000000 0.000000 9.762457 -2.193362 15.214598 -3.746409 1.412343 -25.760711 -5.141586 -0.436408 26.361459 11.927226 -4.121863 -33.960981 0.000000 0.000000 0.000000 -22.359014 -4.385918 1.955560 -42.625231 -5.792605 -5.247676 -18.960582 -33.501311 7.576150 0.000000 0.000000 0.000000 31.029312 -5.534842 -7.112834 47.356644 3.354727 -5.040911 10.657545 24.052615 3.035708 0.000000 0.000000 0.000000 
-0.046230 0.912514 0.109701 -2.298804 -4.378223 7.000107 10.598989 -0.178323 -2.097444 -9.359233 3.495240 32.856235 7.473549 16.044248 6.980383 0.000000 0.000000 0.000000 -1.568413 3.292234 -32.339480 9.978490 -1.924821 25.945225 -6.341228 -16.764262 5.331656 0.000000 0.000000 0.000000 10.129784 -2.271789 15.817530 -3.327849 1.309307 -27.449630 -5.204048 1.264711 26.820617 11.549901 -3.759377 -34.629089 0.000000 0.000000 0.000000 -23.161234 -5.153520 2.272073 -41.932460 -4.248276 -5.670107 -19.026691 -35.928596 8.142161 0.000000 0.000000 0.000000 31.063861 -4.893377 -6.417676 46.425020 4.330362 -4.720729 11.866744 23.456684 3.196615 0.000000 0.000000 0.000000 
-0.058606 0.918783 0.141738 -2.211760 -4.786640 5.608424 12.389068 -0.021340 -6.386757 -12.086715 5.722496 40.396289 10.472435 20.962649 11.500363 0.000000 0.000000 0.000000 0.302299 3.173618 -27.774627 8.930980 -1.509476 25.124569 -6.349352 -16.383467 2.926688 0.000000 0.000000 0.000000 9.607858 -2.256358 16.985261 -3.278440 1.305615 -27.547320 -4.535076 1.418532 26.764472 12.289118 -4.380445 -33.384131 0.000000 0.000000 0.000000 -24.894272 -4.873492 2.108730 -40.468479 -5.054836 -5.291326 -19.103726 -36.405173 8.273218 0.000000 0.000000 0.000000 29.412596 -4.099424 -5.535410 46.822410 5.795415 -4.276622 13.701043 23.100456 3.488035 0.000000 0.000000 0.000000 
-0.068069 0.923487 0.171288 -1.685409 -5.729873 4.977355 12.246949 0.122000 -10.520336 -14.691143 7.804092 43.269417 13.116505 25.166865 9.724969 0.000000 0.000000 0.000000 0.713897 2.856270 -24.470721 8.372378 -1.226012 23.931321 -6.254772 -16.020918 2.269072 0.000000 0.000000 0.000000 8.617064 -2.104106 17.685922 -2.952613 1.246970 -28.343780 -4.239781 2.691062 27.373256 12.632485 -4.328446 -34.278742 0.000000 0.000000 0.000000 -25.367086 -6.433760 2.861300 -40.116601 -5.605836 -5.092207 -17.726351 -37.415626 7.966838 0.000000 0.000000 0.000000 29.389234 -3.715260 -4.943067 46.177296 7.426962 -3.814033 13.530541 24.220373 3.684215 0.000000 0.000000 0.000000 
-0.075128 0.928085 0.198992 -1.427081 -6.661765 4.044265 11.746216 0.236316 -14.211840 -15.913808 8.523308 42.293284 14.962797 28.178251 8.459820 0.000000 0.000000 0.000000 1.624533 2.522510 -20.770794 6.890870 -0.698463 23.237041 -5.687315 -14.325486 0.706466 0.000000 0.000000 0.000000 7.989081 -2.011222 18.514960 -2.554825 1.158099 -28.169236 -3.869180 3.903916 27.047079 13.044067 -4.439412 -34.197380 0.000000 0.000000 0.000000 -25.384484 -6.649216 2.713329 -40.630173 -5.463954 -5.104647 -17.184878 -38.228713 7.903093 0.000000 0.000000 0.000000 28.630445 -3.044303 -4.086769 45.479872 9.188266 -3.235772 14.135260 25.951205 4.137530 0.000000 0.000000 0.000000 
-0.080084 0.930008 0.224977 -1.062650 -7.644439 3.880449 11.588148 0.422677 -18.871670 -16.680843 8.479058 38.937611 16.185618 30.156151 7.792027 0.000000 0.000000 0.000000 1.791369 2.201395 -18.222026 6.408517 -0.482700 22.926086 -5.670183 -13.769169 -1.055782 0.000000 0.000000 0.000000 7.039553 -1.814931 18.673680 -2.104677 1.060048 -28.138299 -3.271596 5.557598 26.911004 13.526402 -4.543669 -34.030331 0.000000 0.000000 0.000000 -26.327262 -7.422061 2.794422 -40.001477 -5.147143 -5.015479 -17.395712 -38.716889 7.983611 0.000000 0.000000 0.000000 28.138690 -2.979386 -3.568206 44.535748 10.787342 -2.747758 15.174820 28.773080 4.968190 0.000000 0.000000 0.000000 
-0.083476 0.930839 0.249740 -1.071030 -9.019434 3.289987 11.257636 0.631889 -22.744084 -16.358291 7.290303 32.546429 16.814083 30.903910 8.240047 0.000000 0.000000 0.000000 2.140089 1.864292 -15.460387 5.259343 -0.054010 22.768324 -4.710703 -10.741031 -2.594390 0.000000 0.000000 0.000000 6.610626 -1.724063 19.408661 -2.106320 1.060468 -28.337661 -2.492497 6.840669 27.291068 13.631976 -4.405044 -34.733230 0.000000 0.000000 0.000000 -26.618882 -6.753860 2.201581 -40.169159 -4.867452 -5.102074 -16.898946 -38.906753 7.825604 0.000000 0.000000 0.000000 27.459678 -2.647546 -3.076988 43.130997 13.159698 -2.003559 15.358029 31.235996 5.526132 0.000000 0.000000 0.000000 
-0.085818 0.929452 0.274827 -1.339711 -10.163889 3.059504 11.053798 0.828914 -25.488133 -15.519207 5.604850 24.457045 16.298968 29.765717 9.196003 0.000000 0.000000 0.000000 2.443191 1.570174 -13.174468 5.283811 0.012120 22.555643 -4.439049 -9.345870 -3.932854 0.000000 0.000000 0.000000 6.024749 -1.605702 19.999577 -1.503028 0.919272 -28.072238 -1.796687 8.384791 26.751824 14.052414 -4.558611 -34.123983 0.000000 0.000000 0.000000 -27.288664 -7.398994 2.223209 -39.461645 -4.091042 -5.097905 -16.771627 -38.731370 7.636589 0.000000 0.000000 0.000000 26.528307 -2.427348 -2.546404 42.185145 14.987677 -1.411310 16.327457 34.275361 6.487370 0.000000 0.000000 0.000000 
